<svg width="32" height="32" viewBox="0 0 32 32" fill="none" xmlns="http://www.w3.org/2000/svg">
<path d="M29.3332 5H2.6665C2.11984 5 1.6665 4.54667 1.6665 4C1.6665 3.45333 2.11984 3 2.6665 3H29.3332C29.8798 3 30.3332 3.45333 30.3332 4C30.3332 4.54667 29.8798 5 29.3332 5Z" fill="white" fill-opacity="0.6"/>
<path d="M14.6665 13H2.6665C2.11984 13 1.6665 12.5467 1.6665 12C1.6665 11.4533 2.11984 11 2.6665 11H14.6665C15.2132 11 15.6665 11.4533 15.6665 12C15.6665 12.5467 15.2132 13 14.6665 13Z" fill="white" fill-opacity="0.6"/>
<path d="M10.6665 21H2.6665C2.11984 21 1.6665 20.5467 1.6665 20C1.6665 19.4533 2.11984 19 2.6665 19H10.6665C11.2132 19 11.6665 19.4533 11.6665 20C11.6665 20.5467 11.2132 21 10.6665 21Z" fill="white" fill-opacity="0.6"/>
<path d="M7.99984 29H2.6665C2.11984 29 1.6665 28.5467 1.6665 28C1.6665 27.4533 2.11984 27 2.6665 27H7.99984C8.5465 27 8.99984 27.4533 8.99984 28C8.99984 28.5467 8.5465 29 7.99984 29Z" fill="white" fill-opacity="0.6"/>
<path d="M15.787 30.3335C13.6404 30.3335 11.8804 28.5868 11.8804 26.4268C11.8804 24.2801 13.627 22.5201 15.787 22.5201C17.947 22.5201 19.6937 24.2668 19.6937 26.4268C19.6937 28.5868 17.947 30.3335 15.787 30.3335ZM15.787 24.5335C14.7337 24.5335 13.8804 25.3868 13.8804 26.4401C13.8804 27.4935 14.7337 28.3468 15.787 28.3468C16.8404 28.3468 17.6937 27.4935 17.6937 26.4401C17.6937 25.3868 16.8404 24.5335 15.787 24.5335Z" fill="white" fill-opacity="0.6"/>
<path d="M18.6934 27.4268C18.1467 27.4268 17.6934 26.9734 17.6934 26.4268V14.7334C17.6934 13.1201 18.6534 11.8535 20.2134 11.4401L26.0134 9.85346C27.28 9.50679 28.3734 9.6401 29.1467 10.2401C29.92 10.8401 30.32 11.8134 30.32 13.1601V24.5068C30.32 25.0534 29.8667 25.5068 29.32 25.5068C28.7734 25.5068 28.32 25.0534 28.32 24.5068V13.1601C28.32 12.4934 28.1867 12.0268 27.9334 11.8401C27.68 11.6401 27.16 11.6267 26.5334 11.8001L20.7334 13.3867C20.3467 13.4934 19.6934 13.8134 19.6934 14.7601V26.4535C19.6934 26.9868 19.24 27.4268 18.6934 27.4268Z" fill="white" fill-opacity="0.6"/>
<path d="M26.4267 28.4001C24.28 28.4001 22.52 26.6534 22.52 24.4934C22.52 22.3468 24.2667 20.5868 26.4267 20.5868C28.5867 20.5868 30.3334 22.3334 30.3334 24.4934C30.3334 26.6534 28.5867 28.4001 26.4267 28.4001ZM26.4267 22.6001C25.3734 22.6001 24.52 23.4535 24.52 24.5068C24.52 25.5601 25.3734 26.4135 26.4267 26.4135C27.48 26.4135 28.3334 25.5601 28.3334 24.5068C28.3334 23.4535 27.48 22.6001 26.4267 22.6001Z" fill="white" fill-opacity="0.6"/>
<path d="M18.6934 19.1333C18.2534 19.1333 17.8534 18.84 17.7334 18.4C17.5867 17.8667 17.9067 17.32 18.44 17.1734L29.08 14.2667C29.6134 14.12 30.16 14.44 30.3067 14.9733C30.4534 15.5067 30.1334 16.0534 29.6 16.2001L18.96 19.1067C18.8667 19.12 18.7734 19.1333 18.6934 19.1333Z" fill="white" fill-opacity="0.6"/>
</svg>
